<?xml version="1.0" encoding="UTF-8"?>
<svg id="Layer_1" data-name="Layer 1" xmlns="http://www.w3.org/2000/svg" viewBox="0 0 135.2 59.9">
  <defs>
    <style>
      .cls-1 {
        fill: #30e3ca;
      }

      .cls-2 {
        fill: #8361f2;
      }
    </style>
  </defs>
  <path class="cls-1" d="m118.69,55.26l-8.66-14.94,9.46-16.32h-5.33l-6.78,11.68-6.74-11.68h-5.36l9.42,16.32-8.62,14.94h-13.29l-11.38-31.26h-2.53l-11.38,31.26h-11.26v-31.26h-4.21l-11.61,20.11-11.65-20.11h-4.25v31.26H0v4.64h19.16v-25.94l11.26,19.39,11.19-19.39v25.94h19.19l4.6-12.68h9.5l4.64,12.68h19.23l8.62-14.98,8.66,14.98h19.16v-4.64h-16.51Zm-51.6-12.72l3.06-8.39,3.06,8.39h-6.13Z"/>
  <path class="cls-2" d="m92.91,15.19c0,1.1-.27,2.13-.83,3.05-.54.91-1.28,1.64-2.18,2.2-.91.54-1.93.81-3.05.81h-34.78c-1.49,0-2.82-.27-4.02-.81-1.18-.56-2.22-1.31-3.07-2.28-.87-.99-1.53-2.11-1.99-3.4-.46-1.28-.7-2.67-.7-4.13s.23-2.84.7-4.12c.46-1.29,1.12-2.42,1.99-3.4.85-.99,1.89-1.76,3.07-2.3,1.2-.54,2.53-.81,4.02-.81h12.18c.84,0,1.52.68,1.52,1.52h0c0,.84-.68,1.52-1.52,1.52h-12.18c-1.39,0-2.59.33-3.59,1.02-1,.68-1.78,1.58-2.34,2.74-.54,1.16-.81,2.43-.81,3.83s.27,2.67.81,3.81c.56,1.14,1.33,2.07,2.34,2.74,1,.7,2.2,1.04,3.59,1.04h34.78c.85,0,1.56-.31,2.14-.91.6-.58.89-1.29.89-2.13s-.29-1.55-.89-2.14c-.58-.6-1.29-.91-2.14-.91h-12.4c-1.1,0-2.13-.27-3.05-.81-.91-.54-1.64-1.28-2.2-2.2-.54-.93-.81-1.93-.81-3.05s.27-2.13.81-3.05c.56-.93,1.29-1.66,2.2-2.2.93-.54,1.95-.81,3.05-.81h15.43c.84,0,1.52.68,1.52,1.52h0c0,.84-.68,1.52-1.52,1.52h-15.43c-.83,0-1.55.29-2.14.89-.58.6-.89,1.31-.89,2.14s.31,1.55.89,2.14c.6.6,1.31.89,2.14.89h12.4c1.12,0,2.14.27,3.05.83.91.54,1.64,1.28,2.18,2.2.56.91.83,1.93.83,3.05Z"/>
</svg>